<?xml version="1.0" encoding="UTF-8"?>
<svg  viewBox="0 0 80 80" version="1.1" xmlns="http://www.w3.org/2000/svg" xmlns:xlink="http://www.w3.org/1999/xlink">
    <title>QuestionnaireIcon</title>
    <g id="QuestionnaireIcon" stroke="none" stroke-width="1" fill-rule="evenodd">
        <g id="Help-/-Alt-4"  fill-rule="nonzero">
            <g id="help-alt-4" >
                <circle id="Oval" cx="33.3333333" cy="53.3333333" r="3.33333333"></circle>
                <path d="M33.3333333,46.6666667 C31.4923842,46.6666667 29.9999962,45.1742825 29.9999962,43.3333333 L29.9999962,36.6666667 C29.9999962,34.8257175 31.4923842,33.3333333 33.3333333,33.3333333 C37.0152317,33.3333333 39.9999962,30.348565 39.9999962,26.6666667 C39.9999962,22.9847683 37.0152317,20 33.3333333,20 C29.651435,20 26.6666667,22.9847683 26.6666667,26.6666667 C26.6666667,28.5076158 25.1742825,30 23.3333333,30 C21.4923842,30 19.9999962,28.5076158 19.9999962,26.6666667 C19.9948317,19.7364392 25.2996559,13.9576703 32.205027,13.3712156 C39.110398,12.7847609 45.3137685,17.5861696 46.4773761,24.4180138 C47.6409838,31.2498581 43.3768319,37.8341074 36.6666667,39.5666667 L36.6666667,43.3333333 C36.6666667,45.1742825 35.1742825,46.6666667 33.3333333,46.6666667 Z" id="Path" ></path>
                <path d="M33.3333333,66.6666667 L3.33333333,66.6666667 C1.49238417,66.6666667 0,65.1742825 0,63.3333333 L0,33.3333333 C0,14.9238417 14.9238417,0 33.3333333,0 C51.742825,0 66.6666667,14.9238417 66.6666667,33.3333333 C66.6666667,51.742825 51.742825,66.6666667 33.3333333,66.6666667 Z M6.66666667,60 L33.3333333,60 C48.0609267,60 60,48.0609267 60,33.3333333 C60,18.60574 48.0609267,6.66666667 33.3333333,6.66666667 C18.60574,6.66666667 6.66666667,18.60574 6.66666667,33.3333333 L6.66666667,60 Z" id="Shape" ></path>
                <path d="M76.6666667,80.0000112 L46.6666667,80.0000112 C35.5303632,80.0091038 25.1251164,74.4563038 18.9333333,65.2 C18.4525848,64.4462383 18.294774,63.5309528 18.4953456,62.6597198 C18.6959172,61.7884869 19.2380575,61.0343412 20,60.5666667 C20.7334275,60.0704888 21.6341405,59.8865276 22.5033924,60.0553751 C23.3726442,60.2242226 24.1389906,60.7320011 24.6333333,61.4666667 C29.5504214,68.8368451 37.8069368,73.2836219 46.6666667,73.3333333 L73.3333333,73.3333333 L73.3333333,46.6666667 C73.3280124,36.601097 67.6555098,27.3961722 58.6666667,22.8666667 C57.6008243,22.3307683 56.9018438,21.2669576 56.8330242,20.0759619 C56.7642047,18.8849662 57.3360014,17.7477259 58.3330242,17.0926286 C59.330047,16.4375312 60.6008243,16.3641016 61.6666667,16.9 C72.9080778,22.5645837 80,34.0787029 80,46.6666667 L80,76.6666667 C80,78.5076158 78.5076158,80.0000112 76.6666667,80.0000112 Z" id="Path" ></path>
            </g>
        </g>
    </g>
</svg>