<?xml version="1.0" encoding="UTF-8"?>
<svg width="80px" height="80px" viewBox="0 0 80 80" version="1.1" xmlns="http://www.w3.org/2000/svg" xmlns:xlink="http://www.w3.org/1999/xlink">
    <title>ListIcon</title>
    <g id="ListIcon" stroke="none" stroke-width="1"  fill-rule="evenodd">
        <g id="List-Bullets"  transform="translate(0.000000, 0.000000)" fill-rule="nonzero">
            <g id="list-bullets" transform="translate(3.333333, 13.333333)">
                <path d="M6.66666667,13.3333333 C2.98476833,13.3333333 0,10.348565 0,6.66666667 C0,2.98476833 2.98476833,0 6.66666667,0 C10.348565,0 13.3333333,2.98476833 13.3333333,6.66666667 C13.3333333,8.4347766 12.6309544,10.1304694 11.3807119,11.3807119 C10.1304694,12.6309544 8.4347766,13.3333333 6.66666667,13.3333333 Z" id="Shape"></path>
                <path d="M70,10 L23.3333333,10 C21.4923842,10 20,8.50761583 20,6.66666667 C20,4.8257175 21.4923842,3.33333333 23.3333333,3.33333333 L70,3.33333333 C71.8409492,3.33333333 73.3333333,4.8257175 73.3333333,6.66666667 C73.3333333,8.50761583 71.8409492,10 70,10 Z" id="Path"></path>
                <path d="M6.66666667,33.3333333 C2.98476833,33.3333333 0,30.348565 0,26.6666667 C0,22.9847683 2.98476833,20 6.66666667,20 C10.348565,20 13.3333333,22.9847683 13.3333333,26.6666667 C13.3333333,30.348565 10.348565,33.3333333 6.66666667,33.3333333 Z" id="Shape"></path>
                <path d="M70,30 L23.3333333,30 C21.4923842,30 20,28.5076158 20,26.6666667 C20,24.8257175 21.4923842,23.3333333 23.3333333,23.3333333 L70,23.3333333 C71.8409492,23.3333333 73.3333333,24.8257175 73.3333333,26.6666667 C73.3333333,28.5076158 71.8409492,30 70,30 Z" id="Path"></path>
                <path d="M6.66666667,53.3333333 C2.98476833,53.3333333 0,50.348565 0,46.6666667 C0,42.9847683 2.98476833,40 6.66666667,40 C10.348565,40 13.3333333,42.9847683 13.3333333,46.6666667 C13.3333333,50.348565 10.348565,53.3333333 6.66666667,53.3333333 Z" id="Shape" ></path>
                <path d="M70,50 L23.3333333,50 C21.4923842,50 20,48.5076158 20,46.6666667 C20,44.8257175 21.4923842,43.3333333 23.3333333,43.3333333 L70,43.3333333 C71.8409492,43.3333333 73.3333333,44.8257175 73.3333333,46.6666667 C73.3333333,48.5076158 71.8409492,50 70,50 Z" id="Path" ></path>
            </g>
        </g>
    </g>
</svg>