<?xml version="1.0" encoding="UTF-8"?>
<svg width="32px" height="32px" viewBox="0 0 32 32" version="1.1" xmlns="http://www.w3.org/2000/svg" xmlns:xlink="http://www.w3.org/1999/xlink">
    <title>Edit / Alt 2</title>
    <g id="🎨-Setup-—-Customize-Here-" stroke="none" stroke-width="1" fill="none" fill-rule="evenodd">
        <g id="iPhone-8-story-#4.1" transform="translate(-295.000000, -627.000000)" fill="#E6DDD3" fill-rule="nonzero">
            <g id="Edit-/-Alt-2" transform="translate(295.000000, 627.000000)">
                <g id="edit-alt-2" fill="none" transform="translate(0.000000, -1.333333)">
                    <path d="M6.66666667,33.3333556 L1.33333333,33.3333556 C0.596953667,33.3333556 -2.23150393e-05,32.7363797 -2.23150393e-05,32 L-2.23150393e-05,26.6666667 C-0.00204901173,26.3122627 0.137084647,25.9716251 0.386666667,25.72 L23.28,2.82666667 C25.2755889,0.831077842 28.5110777,0.831077876 30.5066666,2.82666674 C32.5022555,4.82225561 32.5022555,8.05774442 30.5066667,10.0533333 L7.61333333,32.9466667 C7.36170823,33.1962487 7.02107065,33.3353823 6.66666667,33.3333556 Z M2.66666667,30.6666667 L6.12,30.6666667 L28.6133333,8.16 C29.3205155,7.46718568 29.5359326,6.41424637 29.1576637,5.4993634 C28.7793948,4.58448042 27.8832925,3.99111166 26.8933333,3.9999015 C26.2457829,3.99529727 25.6244307,4.25539821 25.1733333,4.72 L2.66666667,27.2133333 L2.66666667,30.6666667 Z" id="Shape" fill="#000000"></path>
                    <path d="M27.3333333,12.666689 C26.9789294,12.6687157 26.6382918,12.529582 26.3866667,12.28 L21.72,7.61333333 C21.1971704,7.09050377 21.1971704,6.24282956 21.72,5.72 C22.2428296,5.19717044 23.0905038,5.19717044 23.6133333,5.72 L28.28,10.3866667 C28.5324169,10.6370221 28.6743978,10.9778166 28.6743978,11.3333333 C28.6743978,11.68885 28.5324169,12.0296445 28.28,12.28 C28.0283749,12.529582 27.6877373,12.6687157 27.3333333,12.666689 Z" id="Path" fill="#000000"></path>
                </g>
            </g>
        </g>
    </g>
</svg>