<?xml version="1.0" encoding="UTF-8"?>
<svg width="32px" height="28px" viewBox="0 0 32 28" version="1.1" xmlns="http://www.w3.org/2000/svg" xmlns:xlink="http://www.w3.org/1999/xlink">
    <title>Home / Alt 1</title>
    <g id="🎨-Setup-—-Customize-Here-" stroke="none" stroke-width="1" fill="none" fill-rule="evenodd">
        <g id="iPhone-8-story-#5.1" transform="translate(-20.000000, -629.000000)" fill="#E6DDD3" fill-rule="nonzero">
            <g id="Home-/-Alt-1" transform="translate(20.000000, 627.000000)">
                <g id="home-alt-1" fill="none" transform="translate(-1.333333, 1.333333)">
                    <path d="M32.9466667,16.3866667 L28.9466667,12.3866667 L28.9466667,12.3866667 L18.28,1.72 C18.0296445,1.46758313 17.68885,1.32560223 17.3333333,1.32560223 C16.9778166,1.32560223 16.6370221,1.46758313 16.3866667,1.72 L5.72,12.3866667 L5.72,12.3866667 L1.72,16.3866667 C1.19717044,16.9094962 1.19717044,17.7571704 1.72,18.28 C2.24282956,18.8028296 3.09050377,18.8028296 3.61333333,18.28 L5.33333333,16.5466667 L5.33333333,24 C5.33333333,26.209139 7.12419433,28 9.33333333,28 L25.3333333,28 C27.5424723,28 29.3333333,26.209139 29.3333333,24 L29.3333333,16.5466667 L31.0533333,18.28 C31.3036888,18.5324169 31.6444833,18.6743978 32,18.6743978 C32.3555167,18.6743978 32.6963112,18.5324169 32.9466667,18.28 C33.1990835,18.0296445 33.3410644,17.68885 33.3410644,17.3333333 C33.3410644,16.9778166 33.1990835,16.6370221 32.9466667,16.3866667 Z M16,25.3333333 L16,21.3333333 C16,20.5969537 16.5969537,20 17.3333333,20 C18.069713,20 18.6666667,20.5969537 18.6666667,21.3333333 L18.6666667,25.3333333 L16,25.3333333 Z M26.6666667,24 C26.6666667,24.7363797 26.069713,25.3333333 25.3333333,25.3333333 L21.3333333,25.3333333 L21.3333333,21.3333333 C21.3333333,19.1241943 19.5424723,17.3333333 17.3333333,17.3333333 C15.1241943,17.3333333 13.3333333,19.1241943 13.3333333,21.3333333 L13.3333333,25.3333333 L9.33333333,25.3333333 C8.59695367,25.3333333 8,24.7363797 8,24 L8,13.88 L17.3333333,4.54666667 L26.6666667,13.88 L26.6666667,24 Z" id="Shape" fill="#000000"></path>
                </g>
            </g>
        </g>
    </g>
</svg>