<?xml version="1.0" encoding="UTF-8"?>
<svg  viewBox="0 0 80 80" version="1.1" xmlns="http://www.w3.org/2000/svg" xmlns:xlink="http://www.w3.org/1999/xlink">
    <title>HomeIcon</title>
    <g id="HomeIcon" stroke="none" stroke-width="1" fill-rule="evenodd">
        <g id="Home-/-Alt-1"  fill-rule="nonzero">
            <g id="home-alt-1"  transform="translate(-3.333333, 3.333333)">
                <path d="M82.3666667,40.9666667 L72.3666667,30.9666667 L72.3666667,30.9666667 L45.7,4.3 C45.0741113,3.66895783 44.2221251,3.31400559 43.3333333,3.31400559 C42.4445415,3.31400559 41.5925553,3.66895783 40.9666667,4.3 L14.3,30.9666667 L14.3,30.9666667 L4.3,40.9666667 C2.99292609,42.2737406 2.99292609,44.3929261 4.3,45.7 C5.60707391,47.0070739 7.72625943,47.0070739 9.03333333,45.7 L13.3333333,41.3666667 L13.3333333,60 C13.3333333,65.5228475 17.8104858,70 23.3333333,70 L63.3333333,70 C68.8561808,70 73.3333333,65.5228475 73.3333333,60 L73.3333333,41.3666667 L77.6333333,45.7 C78.259222,46.3310422 79.1112082,46.6859944 80,46.6859944 C80.8887918,46.6859944 81.740778,46.3310422 82.3666667,45.7 C82.9977088,45.0741113 83.3526611,44.2221251 83.3526611,43.3333333 C83.3526611,42.4445415 82.9977088,41.5925553 82.3666667,40.9666667 Z M40,63.3333333 L40,53.3333333 C40,51.4923842 41.4923842,50 43.3333333,50 C45.1742825,50 46.6666667,51.4923842 46.6666667,53.3333333 L46.6666667,63.3333333 L40,63.3333333 Z M66.6666667,60 C66.6666667,61.8409492 65.1742825,63.3333333 63.3333333,63.3333333 L53.3333333,63.3333333 L53.3333333,53.3333333 C53.3333333,47.8104858 48.8561808,43.3333333 43.3333333,43.3333333 C37.8104858,43.3333333 33.3333333,47.8104858 33.3333333,53.3333333 L33.3333333,63.3333333 L23.3333333,63.3333333 C21.4923842,63.3333333 20,61.8409492 20,60 L20,34.7 L43.3333333,11.3666667 L66.6666667,34.7 L66.6666667,60 Z" id="Shape" ></path>
            </g>
        </g>
    </g>
</svg>