<?xml version="1.0" encoding="UTF-8"?>
<svg  viewBox="0 0 80 80" version="1.1" xmlns="http://www.w3.org/2000/svg" xmlns:xlink="http://www.w3.org/1999/xlink">
    <title>ResultIcon</title>
    <g id="ResultIcon" stroke="none" stroke-width="1"  fill-rule="evenodd">
        <g id="Alerts-/-Alt-3"  fill-rule="nonzero">
            <g id="alerts-alt-3"  transform="translate(6.666667, 6.666667)">
                <path d="M33.3333333,46.6666667 C31.4923842,46.6666667 30,45.1742825 30,43.3333333 L30,20 C30,18.1590508 31.4923842,16.6666667 33.3333333,16.6666667 C35.1742825,16.6666667 36.6666667,18.1590508 36.6666667,20 L36.6666667,43.3333333 C36.6666667,45.1742825 35.1742825,46.6666667 33.3333333,46.6666667 Z" id="Path"></path>
                <circle id="Oval" cx="33.3333333" cy="53.3333333" r="3.33333333"></circle>
                <path d="M56.6666667,66.6666667 L10,66.6666667 C4.4771525,66.6666667 0,62.1895142 0,56.6666667 L0,10 C0,4.4771525 4.4771525,0 10,0 L56.6666667,0 C62.1895142,0 66.6666667,4.4771525 66.6666667,10 L66.6666667,56.6666667 C66.6666667,62.1895142 62.1895142,66.6666667 56.6666667,66.6666667 Z M10,6.66666667 C8.15905083,6.66666667 6.66666667,8.15905083 6.66666667,10 L6.66666667,56.6666667 C6.66666667,58.5076158 8.15905083,60 10,60 L56.6666667,60 C58.5076158,60 60,58.5076158 60,56.6666667 L60,10 C60,8.15905083 58.5076158,6.66666667 56.6666667,6.66666667 L10,6.66666667 Z" id="Shape"></path>
            </g>
        </g>
    </g>
</svg>