<?xml version="1.0" encoding="UTF-8"?>
<svg width="28px" height="28px" viewBox="0 0 28 28" version="1.1" xmlns="http://www.w3.org/2000/svg" xmlns:xlink="http://www.w3.org/1999/xlink">
    <title>Alerts / Alt 3</title>
    <g id="🎨-Setup-—-Customize-Here-" stroke="none" stroke-width="1" fill="none" fill-rule="evenodd">
        <g id="iPhone-8-story-#3" transform="translate(-267.000000, -629.000000)" fill="#344C54" fill-rule="nonzero">
            <g id="Alerts-/-Alt-3" transform="translate(265.000000, 627.000000)">
                <g id="alerts-alt-3" fill="none" transform="translate(2.666667, 2.666667)">
                    <path d="M13.3333333,18.6666667 C12.5969537,18.6666667 12,18.069713 12,17.3333333 L12,8 C12,7.26362033 12.5969537,6.66666667 13.3333333,6.66666667 C14.069713,6.66666667 14.6666667,7.26362033 14.6666667,8 L14.6666667,17.3333333 C14.6666667,18.069713 14.069713,18.6666667 13.3333333,18.6666667 Z" id="Path" fill="#000000"></path>
                    <circle id="Oval" fill="#000000" cx="13.3333333" cy="21.3333333" r="1.33333333"></circle>
                    <path d="M22.6666667,26.6666667 L4,26.6666667 C1.790861,26.6666667 0,24.8758057 0,22.6666667 L0,4 C0,1.790861 1.790861,0 4,0 L22.6666667,0 C24.8758057,0 26.6666667,1.790861 26.6666667,4 L26.6666667,22.6666667 C26.6666667,24.8758057 24.8758057,26.6666667 22.6666667,26.6666667 Z M4,2.66666667 C3.26362033,2.66666667 2.66666667,3.26362033 2.66666667,4 L2.66666667,22.6666667 C2.66666667,23.4030463 3.26362033,24 4,24 L22.6666667,24 C23.4030463,24 24,23.4030463 24,22.6666667 L24,4 C24,3.26362033 23.4030463,2.66666667 22.6666667,2.66666667 L4,2.66666667 Z" id="Shape" fill="#000000"></path>
                </g>
            </g>
        </g>
    </g>
</svg>