<?xml version="1.0" encoding="UTF-8"?>
<svg width="32px" height="32px" viewBox="0 0 32 32" version="1.1" xmlns="http://www.w3.org/2000/svg" xmlns:xlink="http://www.w3.org/1999/xlink">
    <title>Help / Alt 4</title>
    <g id="🎨-Setup-—-Customize-Here-" stroke="none" stroke-width="1" fill="none" fill-rule="evenodd">
        <g id="iPhone-8-story-#3" transform="translate(-62.000000, -627.000000)" fill="#344C54" fill-rule="nonzero">
            <g id="Help-/-Alt-4" transform="translate(62.000000, 627.000000)">
                <g id="help-alt-4" fill="none">
                    <circle id="Oval" fill="#000000" cx="13.3333333" cy="21.3333333" r="1.33333333"></circle>
                    <path d="M13.3333333,18.6666667 C12.5969537,18.6666667 11.9999985,18.069713 11.9999985,17.3333333 L11.9999985,14.6666667 C11.9999985,13.930287 12.5969537,13.3333333 13.3333333,13.3333333 C14.8060927,13.3333333 15.9999985,12.139426 15.9999985,10.6666667 C15.9999985,9.19390733 14.8060927,8 13.3333333,8 C11.860574,8 10.6666667,9.19390733 10.6666667,10.6666667 C10.6666667,11.4030463 10.069713,12 9.33333333,12 C8.59695367,12 7.99999849,11.4030463 7.99999849,10.6666667 C7.99793267,7.89457569 10.1198623,5.58306812 12.8820108,5.34848623 C15.6441592,5.11390435 18.1255074,7.03446783 18.5909505,9.76720554 C19.0563935,12.4999432 17.3507328,15.133643 14.6666667,15.8266667 L14.6666667,17.3333333 C14.6666667,18.069713 14.069713,18.6666667 13.3333333,18.6666667 Z" id="Path" fill="#000000"></path>
                    <path d="M13.3333333,26.6666667 L1.33333333,26.6666667 C0.596953667,26.6666667 0,26.069713 0,25.3333333 L0,13.3333333 C0,5.96953667 5.96953667,0 13.3333333,0 C20.69713,0 26.6666667,5.96953667 26.6666667,13.3333333 C26.6666667,20.69713 20.69713,26.6666667 13.3333333,26.6666667 Z M2.66666667,24 L13.3333333,24 C19.2243707,24 24,19.2243707 24,13.3333333 C24,7.442296 19.2243707,2.66666667 13.3333333,2.66666667 C7.442296,2.66666667 2.66666667,7.442296 2.66666667,13.3333333 L2.66666667,24 Z" id="Shape" fill="#000000"></path>
                    <path d="M30.6666667,32.0000045 L18.6666667,32.0000045 C14.2121453,32.0036415 10.0500466,29.7825215 7.57333333,26.08 C7.38103394,25.7784953 7.31790958,25.4123811 7.39813823,25.0638879 C7.47836687,24.7153948 7.69522302,24.4137365 8,24.2266667 C8.29337098,24.0281955 8.65365619,23.9546111 9.00135694,24.0221501 C9.3490577,24.089689 9.65559623,24.2928004 9.85333333,24.5866667 C11.8201685,27.534738 15.1227747,29.3134488 18.6666667,29.3333333 L29.3333333,29.3333333 L29.3333333,18.6666667 C29.331205,14.6404388 27.0622039,10.9584689 23.4666667,9.14666667 C23.0403297,8.93230731 22.7607375,8.50678305 22.7332097,8.03038476 C22.7056819,7.55398646 22.9344006,7.09909037 23.3332097,6.83705142 C23.7320188,6.57501248 24.2403297,6.54564065 24.6666667,6.76 C29.1632311,9.02583348 32,13.6314812 32,18.6666667 L32,30.6666667 C32,31.4030463 31.4030463,32.0000045 30.6666667,32.0000045 Z" id="Path" fill="#000000"></path>
                </g>
            </g>
        </g>
    </g>
</svg>